# xmcd
#
# Track frame offsets:
#	150
#	19205
#	36614
#	54712
#	71648
#	88703
#	104699
#	119258
#	131624
#	146496
#	159265
#	173042
#	192004
#	209576
#
# Disc length: 3012 seconds
#
# Revision: 2
# Processed by: cddbd v1.5.2PL0 Copyright (c) Steve Scherf et al.
# Submitted via: audiograbber 1.83.01
#
DISCID=cf0bc20e
DTITLE=Star Disc - SD 139
DYEAR=2006
DGENRE=Karaoke
TTITLE0=Keith Urban,  - Tonight I Wanna Cry
TTITLE1=LeAnn Rimes,  - Something's Gotta Give
TTITLE2=Lonestar - I'll Die Tryin'
TTITLE3=Craig Morgan,  - I Got You
TTITLE4=Lee Ann Womack,  - Twenty Years And Two Husbands Ago
TTITLE5=Jack Ingram,  - Wherever You Are
TTITLE6=SheDaisy - I'm Taking The Wheel
TTITLE7=Black, Clint - Drinking Songs And Other Logic
TTITLE8=Jo Dee Messina,  - Not Going Down
TTITLE9=Jeff Bates,  - No Shame
TTITLE10=Jamie O'Neal, - I Love My Life
TTITLE11=Rhett Akins,  - Kiss My Country Ass
TTITLE12=Tyler Dean,  - Somebody Who Would Die For You
TTITLE13=Dolly Parton,  - Imagine
EXTD=
EXTT0=
EXTT1=
EXTT2=
EXTT3=
EXTT4=
EXTT5=
EXTT6=
EXTT7=
EXTT8=
EXTT9=
EXTT10=
EXTT11=
EXTT12=
EXTT13=
PLAYORDER=
